<svg xmlns="http://www.w3.org/2000/svg" viewBox="0 0 200 200" width="200" height="200">
  <rect width="200" height="200" fill="#f8f0f4" rx="12"/>
  <!-- Mother figure -->
  <circle cx="90" cy="75" r="18" fill="#e8a87c"/>
  <!-- Hair -->
  <path d="M73,70 Q90,52 107,70" fill="#5c3a1e" stroke="none"/>
  <!-- Body -->
  <path d="M68,93 Q75,88 90,90 Q105,88 112,93 L115,140 L65,140 Z" fill="#c0392b" opacity="0.7"/>
  <!-- Arms holding baby -->
  <path d="M68,105 Q55,115 58,130 Q65,128 68,120" fill="#e8a87c"/>
  <path d="M112,105 Q125,115 122,130 Q115,128 112,120" fill="#e8a87c"/>
  <!-- Baby -->
  <circle cx="90" cy="122" r="12" fill="#f5cba7"/>
  <path d="M80,113 Q90,107 100,113" fill="#f0a500" stroke="none"/>
  <!-- Warning/alert triangle on right side -->
  <polygon points="148,60 175,110 121,110" fill="#e74c3c" opacity="0.85" stroke="white" stroke-width="2"/>
  <text x="148" y="100" text-anchor="middle" font-family="sans-serif" font-size="22" font-weight="bold" fill="white">!</text>
  <!-- Shield symbol (protection) -->
  <path d="M148,120 Q135,130 135,145 Q135,160 148,168 Q161,160 161,145 Q161,130 148,120Z" fill="#27ae60" opacity="0.7"/>
  <text x="100" y="188" text-anchor="middle" font-family="sans-serif" font-size="10" fill="#666">Motherhood &amp; IPV</text>
</svg>
